<?xml version="1.0" encoding="iso-8859-1"?>
<!-- Generator: Adobe Illustrator 19.0.0, SVG Export Plug-In . SVG Version: 6.00 Build 0)  -->
<svg version="1.1" id="Capa_1" xmlns="http://www.w3.org/2000/svg" xmlns:xlink="http://www.w3.org/1999/xlink" x="0px" y="0px"
	 viewBox="0 0 512 512" style="enable-background:new 0 0 512 512;" xml:space="preserve">
<path style="fill:#303C42;" d="M428.77,444.411C481.617,395.923,512,328.053,512,256C512,114.844,397.167,0,256,0S0,114.844,0,256
	c0,72.004,30.336,139.822,83.232,188.398C71.572,450.646,64,462.421,64,475.896C64,495.802,80.188,512,100.104,512h98.458
	c5.523,0,10.701-1.346,15.384-3.57C227.733,510.714,241.849,512,256,512c14.086,0,28.198-1.286,42.06-3.568
	c4.682,2.223,9.857,3.568,15.378,3.568h98.458C431.813,512,448,495.802,448,475.896C448,462.44,440.445,450.682,428.77,444.411z"/>
<path style="fill:#FED600;" d="M21.333,256C21.333,126.604,126.604,21.333,256,21.333S490.667,126.604,490.667,256
	c0,67.958-29.365,131.94-80.316,176.487c-9.667-9.005-15.684-21.49-15.684-35.31v-188.52c22.232-7.22,29.863-20.53,30.875-22.553
	c2.583-5.167,0.5-11.313-4.583-14.042c-5.104-2.708-11.479-0.75-14.375,4.25c-0.354,0.646-9.354,15.688-43.917,15.688
	c-34.083,0-43.313-14.646-43.896-15.656c-2.708-5.125-8.979-7.146-14.208-4.552c-5.271,2.635-7.396,9.042-4.771,14.313
	c1.012,2.023,8.643,15.333,30.875,22.553v132.676H181.333V208.658c22.232-7.22,29.863-20.53,30.875-22.553
	c2.583-5.167,0.5-11.313-4.583-14.042c-5.083-2.708-11.5-0.75-14.375,4.25c-0.354,0.646-9.354,15.688-43.917,15.688
	c-34.083,0-43.313-14.646-43.896-15.656c-2.708-5.125-8.979-7.146-14.208-4.552c-5.271,2.635-7.396,9.042-4.771,14.313
	c1.012,2.023,8.643,15.333,30.875,22.553v188.52c0,13.81-6.012,26.285-15.685,35.296C50.642,387.824,21.333,323.893,21.333,256z"/>
<path style="fill:#38A4DD;" d="M198.563,490.667h-98.458c-8.146,0-14.771-6.625-14.771-14.771c0-6.073,3.646-11.469,9.354-13.74
	c26.729-10.698,43.979-36.208,43.979-64.979V212.646c3.453,0.298,6.772,0.688,10.667,0.688s7.214-0.389,10.667-0.688v184.531
	c0,28.771,17.25,54.281,44.042,65c5.646,2.25,9.292,7.646,9.292,13.719C213.333,484.042,206.708,490.667,198.563,490.667z"/>
<path style="opacity:0.1;fill:#010101;enable-background:new    ;" d="M204.042,462.177c-0.883-0.353-1.665-0.852-2.527-1.237
	c-2.233,5.327-7.49,9.081-13.618,9.081H89.438c-0.883,0-1.65-0.355-2.49-0.504c-0.953,1.967-1.615,4.087-1.615,6.379
	c0,8.146,6.625,14.771,14.771,14.771h98.458c8.146,0,14.771-6.625,14.771-14.771C213.333,469.823,209.688,464.427,204.042,462.177z"
	/>
<path style="fill:#FED600;" d="M232.016,489.327c1.676-4.16,2.651-8.678,2.651-13.431c0-14.854-8.917-28.01-22.771-33.552
	c-18.563-7.438-30.563-25.167-30.563-45.167v-34.51h149.333v34.51c0,20-12,37.729-30.625,45.188
	c-13.792,5.521-22.708,18.677-22.708,33.531c0,4.751,0.975,9.267,2.651,13.426C264.03,490.922,247.889,490.924,232.016,489.327z"/>
<path style="fill:#38A4DD;" d="M411.896,490.667h-98.458c-8.146,0-14.771-6.625-14.771-14.771c0-6.073,3.646-11.469,9.354-13.74
	C334.75,451.458,352,425.948,352,397.177V212.646c3.453,0.298,6.772,0.688,10.667,0.688s7.214-0.389,10.667-0.688v184.531
	c0,28.771,17.25,54.281,44.042,65c5.646,2.25,9.292,7.646,9.292,13.719C426.667,484.042,420.042,490.667,411.896,490.667z"/>
<g>
	<path style="opacity:0.1;fill:#010101;enable-background:new    ;" d="M487.861,221.637c-0.777-5.286-1.583-10.565-2.707-15.73
		c-0.779-3.565-1.779-7.044-2.719-10.548c-1.171-4.376-2.37-8.737-3.783-13.009c-1.25-3.767-2.653-7.46-4.086-11.141
		c-1.473-3.792-3.013-7.546-4.673-11.237c-1.727-3.832-3.543-7.612-5.466-11.331c-1.71-3.311-3.526-6.553-5.387-9.77
		c-2.203-3.802-4.435-7.585-6.841-11.249c-1.882-2.87-3.906-5.629-5.908-8.408c-2.694-3.737-5.371-7.487-8.273-11.055
		c-1.922-2.365-4.012-4.578-6.023-6.865c-3.258-3.701-6.464-7.451-9.945-10.94c-1.206-1.207-2.536-2.28-3.768-3.462
		c-4.163-3.997-8.361-7.96-12.809-11.645c33.227,40.49,53.194,92.284,53.194,148.751c0,62.271-24.423,118.719-64,160.728v12.449
		c0,13.814,6.012,26.293,15.672,35.297c0.13-0.113,0.253-0.234,0.383-0.348c5.915-5.194,11.509-10.673,16.827-16.367
		c0.664-0.712,1.309-1.441,1.964-2.161c4.758-5.224,9.243-10.651,13.488-16.245c0.844-1.113,1.685-2.227,2.509-3.355
		c3.917-5.355,7.559-10.883,10.996-16.531c0.84-1.382,1.707-2.745,2.518-4.146c3.238-5.579,6.181-11.316,8.944-17.139
		c0.728-1.536,1.517-3.038,2.212-4.594c2.624-5.852,4.91-11.848,7.044-17.904c0.57-1.625,1.237-3.203,1.773-4.845
		c2.003-6.111,3.629-12.352,5.124-18.63c0.4-1.688,0.928-3.324,1.292-5.026c1.378-6.411,2.335-12.934,3.172-19.482
		c0.208-1.642,0.573-3.234,0.746-4.887c0.871-8.194,1.336-16.471,1.336-24.814c0-8.624-0.542-17.117-1.449-25.5
		C488.892,227.505,488.297,224.596,487.861,221.637z"/>
	<path style="opacity:0.1;fill:#010101;enable-background:new    ;" d="M81.759,412.694c1.191,1.326,2.393,2.637,3.615,3.934
		c4.616,4.895,9.456,9.612,14.52,14.137c0.608,0.543,1.225,1.076,1.84,1.613c1.733-1.624,3.208-3.465,4.693-5.298
		c-10.482-6.082-20.418-12.982-29.79-20.559C78.359,408.568,79.962,410.701,81.759,412.694z"/>
	<path style="opacity:0.1;fill:#010101;enable-background:new    ;" d="M277.333,475.896c0-10.471,4.605-19.945,12.052-26.65
		c-18.986,5.504-38.952,8.622-59.59,9.128c2.956,5.272,4.871,11.164,4.871,17.522c0,4.745-0.974,9.255-2.645,13.408
		c1.116,0.113,2.268,0.095,3.389,0.193c14.783,1.273,29.75,1.313,44.573-0.174C278.309,485.163,277.333,480.647,277.333,475.896z"/>
	<path style="opacity:0.1;fill:#010101;enable-background:new    ;" d="M417.375,462.177c-0.883-0.353-1.665-0.852-2.527-1.237
		c-2.233,5.327-7.49,9.081-13.618,9.081h-98.458c-0.883,0-1.65-0.355-2.49-0.504c-0.953,1.967-1.615,4.087-1.615,6.379
		c0,8.146,6.625,14.771,14.771,14.771h98.458c8.146,0,14.771-6.625,14.771-14.771C426.667,469.823,423.021,464.427,417.375,462.177z
		"/>
</g>
<linearGradient id="SVGID_1_" gradientUnits="userSpaceOnUse" x1="-46.0272" y1="638.5925" x2="-23.6674" y2="628.1684" gradientTransform="matrix(21.3333 0 0 -21.3333 996.3334 13791.667)">
	<stop  offset="0" style="stop-color:#FFFFFF;stop-opacity:0.2"/>
	<stop  offset="1" style="stop-color:#FFFFFF;stop-opacity:0"/>
</linearGradient>
<path style="fill:url(#SVGID_1_);" d="M428.77,444.411C481.617,395.923,512,328.053,512,256C512,114.844,397.167,0,256,0
	S0,114.844,0,256c0,72.004,30.336,139.822,83.232,188.398C71.572,450.646,64,462.421,64,475.896C64,495.802,80.188,512,100.104,512
	h98.458c5.523,0,10.701-1.346,15.384-3.57C227.733,510.714,241.849,512,256,512c14.086,0,28.198-1.286,42.06-3.568
	c4.682,2.223,9.857,3.568,15.378,3.568h98.458C431.813,512,448,495.802,448,475.896C448,462.44,440.445,450.682,428.77,444.411z"/>
<g>
</g>
<g>
</g>
<g>
</g>
<g>
</g>
<g>
</g>
<g>
</g>
<g>
</g>
<g>
</g>
<g>
</g>
<g>
</g>
<g>
</g>
<g>
</g>
<g>
</g>
<g>
</g>
<g>
</g>
</svg>
