<?xml version="1.0" encoding="iso-8859-1"?>
<!-- Generator: Adobe Illustrator 19.0.0, SVG Export Plug-In . SVG Version: 6.00 Build 0)  -->
<svg version="1.1" id="Capa_1" xmlns="http://www.w3.org/2000/svg" xmlns:xlink="http://www.w3.org/1999/xlink" x="0px" y="0px"
	 viewBox="0 0 477.544 477.544" style="enable-background:new 0 0 477.544 477.544;" xml:space="preserve">
<g>
	<rect x="82.772" y="320" style="fill:#ABD4D8;" width="16" height="112"/>
	<path style="fill:#ABD4D8;" d="M406.884,339.576L259.332,365.24l6.48,6.48c5.776,5.784,8.96,13.472,8.96,21.656
		c0,16.88-13.744,30.624-30.624,30.624c-8.176,0-15.872-3.184-21.656-8.968l-41.376-41.376l11.312-11.312l41.376,41.376
		c2.72,2.72,6.488,4.28,10.344,4.28c8.064,0,14.624-6.56,14.624-14.624c0-3.856-1.56-7.624-4.28-10.344L191.46,320h-76.688v96h24
		c1.24,0,2.472,0.288,3.576,0.84l87.216,43.608c3.088,1.544,6.696,1.416,9.664-0.312l174.504-101.8
		c3.112-1.808,5.04-5.168,5.04-8.76c0-3-1.32-5.832-3.616-7.768C412.86,339.872,409.86,339.056,406.884,339.576z"/>
</g>
<g>
	<circle style="fill:#668894;" cx="162.772" cy="96" r="8"/>
	<path style="fill:#668894;" d="M122.772,208c52.936,0,96-43.064,96-96s-43.064-96-96-96s-96,43.064-96,96S69.836,208,122.772,208z
		 M162.772,72c13.232,0,24,10.768,24,24s-10.768,24-24,24s-24-10.768-24-24S149.54,72,162.772,72z M162.772,176h-16
		c0-13.232-10.768-24-24-24s-24,10.768-24,24h-16c0-22.056,17.944-40,40-40S162.772,153.944,162.772,176z M82.772,72
		c13.232,0,24,10.768,24,24s-10.768,24-24,24s-24-10.768-24-24S69.54,72,82.772,72z"/>
</g>
<circle style="fill:#F08843;" cx="402.772" cy="144" r="8"/>
<circle style="fill:#668894;" cx="82.772" cy="96" r="8"/>
<g>
	<path style="fill:#F08843;" d="M362.772,64c-52.936,0-96,43.064-96,96s43.064,96,96,96s96-43.064,96-96S415.708,64,362.772,64z
		 M298.772,144c0-13.232,10.768-24,24-24s24,10.768,24,24s-10.768,24-24,24S298.772,157.232,298.772,144z M362.772,232
		c-22.056,0-40-17.944-40-40h16c0,13.232,10.768,24,24,24s24-10.768,24-24h16C402.772,214.056,384.828,232,362.772,232z
		 M402.772,168c-13.232,0-24-10.768-24-24s10.768-24,24-24s24,10.768,24,24S416.004,168,402.772,168z"/>
	<circle style="fill:#F08843;" cx="322.772" cy="144" r="8"/>
</g>
<rect x="2.772" y="320" style="fill:#668894;" width="63.984" height="112"/>
<g>
	<path style="fill:#203C51;" d="M404.148,323.816l-158.656,27.592l-45.064-45.064c-1.496-1.504-3.528-2.344-5.656-2.344h-88h-32h-72
		v16h0.016h63.984v112H2.788H2.772v16h72h32c4.424,0,8-3.576,8-8v-8h22.112l85.528,42.768c3.704,1.848,7.704,2.776,11.704,2.776
		c4.544,0,9.096-1.192,13.168-3.576l174.52-101.808c8-4.664,12.968-13.312,12.968-22.576c0-7.736-3.4-15.032-9.32-20.016
		C419.54,324.584,411.74,322.496,404.148,323.816z M98.772,432h-16V320h16V432z M413.74,358.344l-174.504,101.8
		c-2.968,1.728-6.576,1.856-9.664,0.312l-87.216-43.608c-1.112-0.56-2.344-0.848-3.584-0.848h-24v-96h76.688l63.032,63.032
		c2.72,2.72,4.28,6.488,4.28,10.344c0,8.064-6.56,14.624-14.624,14.624c-3.848,0-7.624-1.56-10.344-4.28l-41.376-41.376
		l-11.312,11.312l41.376,41.376c5.784,5.784,13.48,8.968,21.656,8.968c16.88,0,30.624-13.744,30.624-30.624
		c0-8.184-3.184-15.872-8.968-21.656l-6.48-6.48l147.552-25.664c2.976-0.52,5.976,0.296,8.272,2.232
		c2.304,1.936,3.624,4.768,3.624,7.768C418.772,353.168,416.844,356.528,413.74,358.344z"/>
	<path style="fill:#203C51;" d="M122.772,224c61.76,0,112-50.24,112-112s-50.24-112-112-112s-112,50.24-112,112
		S61.012,224,122.772,224z M122.772,16c52.936,0,96,43.064,96,96s-43.064,96-96,96s-96-43.064-96-96S69.836,16,122.772,16z"/>
	<path style="fill:#203C51;" d="M362.772,48c-61.76,0-112,50.24-112,112s50.24,112,112,112s112-50.24,112-112S424.532,48,362.772,48
		z M362.772,256c-52.936,0-96-43.064-96-96s43.064-96,96-96s96,43.064,96,96S415.708,256,362.772,256z"/>
	<path style="fill:#203C51;" d="M82.772,120c13.232,0,24-10.768,24-24s-10.768-24-24-24s-24,10.768-24,24S69.54,120,82.772,120z
		 M82.772,88c4.416,0,8,3.584,8,8s-3.584,8-8,8s-8-3.584-8-8S78.356,88,82.772,88z"/>
	<path style="fill:#203C51;" d="M162.772,120c13.232,0,24-10.768,24-24s-10.768-24-24-24s-24,10.768-24,24S149.54,120,162.772,120z
		 M162.772,88c4.416,0,8,3.584,8,8s-3.584,8-8,8s-8-3.584-8-8S158.356,88,162.772,88z"/>
	<path style="fill:#203C51;" d="M346.772,144c0-13.232-10.768-24-24-24s-24,10.768-24,24s10.768,24,24,24
		S346.772,157.232,346.772,144z M314.772,144c0-4.416,3.584-8,8-8s8,3.584,8,8s-3.584,8-8,8S314.772,148.416,314.772,144z"/>
	<path style="fill:#203C51;" d="M402.772,120c-13.232,0-24,10.768-24,24s10.768,24,24,24s24-10.768,24-24S416.004,120,402.772,120z
		 M402.772,152c-4.416,0-8-3.584-8-8s3.584-8,8-8s8,3.584,8,8S407.188,152,402.772,152z"/>
	<path style="fill:#203C51;" d="M82.772,176h16c0-13.232,10.768-24,24-24s24,10.768,24,24h16c0-22.056-17.944-40-40-40
		S82.772,153.944,82.772,176z"/>
	<path style="fill:#203C51;" d="M362.772,216c-13.232,0-24-10.768-24-24h-16c0,22.056,17.944,40,40,40s40-17.944,40-40h-16
		C386.772,205.232,376.004,216,362.772,216z"/>
	<rect x="322.772" style="fill:#203C51;" width="16" height="16"/>
	<rect x="354.772" style="fill:#203C51;" width="16" height="16"/>
	<rect x="386.772" style="fill:#203C51;" width="16" height="16"/>
</g>
<g>
</g>
<g>
</g>
<g>
</g>
<g>
</g>
<g>
</g>
<g>
</g>
<g>
</g>
<g>
</g>
<g>
</g>
<g>
</g>
<g>
</g>
<g>
</g>
<g>
</g>
<g>
</g>
<g>
</g>
</svg>
