<?xml version="1.0" encoding="iso-8859-1"?>
<!-- Generator: Adobe Illustrator 19.0.0, SVG Export Plug-In . SVG Version: 6.00 Build 0)  -->
<svg version="1.1" id="Layer_1" xmlns="http://www.w3.org/2000/svg" xmlns:xlink="http://www.w3.org/1999/xlink" x="0px" y="0px"
	 viewBox="0 0 512 512" style="enable-background:new 0 0 512 512;" xml:space="preserve">
<path style="fill:#40596B;" d="M411.2,512H99.733C88,512,78.4,502.4,78.4,490.667V21.333C78.4,9.6,88,0,99.733,0h312.533
	C424,0,433.6,9.6,433.6,21.333v469.333C432.533,502.4,422.933,512,411.2,512z"/>
<rect x="121.067" y="55.467" style="fill:#F2F2F2;" width="269.867" height="363.733"/>
<g>
	<path style="fill:#334A5E;" d="M306.667,36.267H203.2c-4.267,0-8.533-3.2-8.533-8.533l0,0c0-4.267,3.2-8.533,8.533-8.533h103.467
		c4.267,0,8.533,3.2,8.533,8.533l0,0C315.2,32,312,36.267,306.667,36.267z"/>
	<circle style="fill:#334A5E;" cx="255.467" cy="465.067" r="27.733"/>
</g>
<circle style="fill:#FFD15C;" cx="255.467" cy="237.867" r="82.133"/>
<circle style="fill:#F8B64C;" cx="255.467" cy="237.867" r="67.2"/>
<path style="fill:#FFD15C;" d="M251.2,266.667v-25.6c-8.533-2.133-13.867-5.333-18.133-10.667
	c-4.267-4.267-5.333-10.667-5.333-17.067c0-6.4,2.133-12.8,6.4-17.067s9.6-7.467,17.067-7.467v-6.4h8.533v6.4
	c6.4,1.067,11.733,3.2,16,6.4c4.267,3.2,6.4,8.533,7.467,14.933l-16,2.133c-1.067-5.333-3.2-8.533-7.467-9.6V227.2
	c9.6,3.2,17.067,6.4,20.267,10.667c3.2,4.267,5.333,9.6,5.333,16c0,7.467-2.133,13.867-6.4,19.2c-4.267,5.333-10.667,8.533-19.2,9.6
	V294.4H251.2v-11.733c-7.467-1.067-12.8-3.2-17.067-7.467c-4.267-4.267-7.467-10.667-8.533-19.2l16-2.133
	c1.067,3.2,2.133,6.4,3.2,8.533C246.933,263.467,249.067,265.6,251.2,266.667z M251.2,201.6c-2.133,1.067-4.267,2.133-5.333,4.267
	c-1.067,2.133-2.133,4.267-2.133,6.4c0,2.133,1.067,4.267,2.133,6.4c1.067,2.133,3.2,3.2,6.4,4.267V201.6H251.2z M259.733,267.733
	c3.2-1.067,5.333-2.133,7.467-4.267c2.133-2.133,3.2-5.333,3.2-8.533c0-3.2-1.067-5.333-2.133-7.467
	c-2.133-2.133-4.267-3.2-7.467-4.267v24.533H259.733z"/>
<g>
</g>
<g>
</g>
<g>
</g>
<g>
</g>
<g>
</g>
<g>
</g>
<g>
</g>
<g>
</g>
<g>
</g>
<g>
</g>
<g>
</g>
<g>
</g>
<g>
</g>
<g>
</g>
<g>
</g>
</svg>
